 0
SECTION
 2
ENTITIES
  0
POLYLINE
 8
Layer0
 66
     1
10
0.0
 20
 0.0
 30
0.0
70
    64
71
172
72
   1
  0
VERTEX
  8
Layer0
10
118.87698063274563
20
28.233872096843587
30
-7.976692033957287e-14
 70
     192
  0
VERTEX
  8
Layer0
10
120.39320874051056
20
28.69012554460429
30
-2.3590298526262764e-13
 70
     192
  0
VERTEX
  8
Layer0
10
120.73528042607181
20
26.400417265027382
30
-7.976692033957287e-14
 70
     192
  0
VERTEX
  8
Layer0
10
120.33528264520196
20
29.130117921278575
30
-2.3590298526262764e-13
 70
     192
  0
VERTEX
  8
Layer0
10
120.56303945876842
20
28.280117921278578
30
-2.3590298526262764e-13
 70
     192
  0
VERTEX
  8
Layer0
10
120.83320111718484
20
27.928036393261447
30
-2.3590298526262764e-13
 70
     192
  0
VERTEX
  8
Layer0
10
122.05572716062395
20
24.14847251361873
30
-7.976692033957287e-14
 70
     192
  0
VERTEX
  8
Layer0
10
121.18528264520197
20
27.657874734845038
30
-2.3590298526262764e-13
 70
     192
  0
VERTEX
  8
Layer0
10
121.59529026852769
20
27.488044016587168
30
-2.3590298526262764e-13
 70
     192
  0
VERTEX
  8
Layer0
10
122.03528264520197
20
27.430117921278594
30
-2.3590298526262764e-13
 70
     192
  0
VERTEX
  8
Layer0
10
122.47527502187627
20
27.488044016587178
30
-2.3590298526262764e-13
 70
     192
  0
VERTEX
  8
Layer0
10
122.74833457358369
20
21.631504155911475
30
-7.976692033957287e-14
 70
     192
  0
VERTEX
  8
Layer0
10
122.88528264520197
20
27.657874734845056
30
-2.3590298526262764e-13
 70
     192
  0
VERTEX
  8
Layer0
10
122.7659026143457
20
19.021039425996488
30
-7.976692033957287e-14
 70
     192
  0
VERTEX
  8
Layer0
10
122.88512841965048
20
12.217061983680123
30
-6.618949220040691e-13
 70
     192
  0
VERTEX
  8
Layer0
10
123.23723824579615
20
11.946937208102497
30
-6.618949220040691e-13
 70
     192
  0
VERTEX
  8
Layer0
10
123.23736417321909
20
27.928036393261475
30
-2.3590298526262764e-13
 70
     192
  0
VERTEX
  8
Layer0
10
123.50743678408685
20
11.594883982077297
30
-6.618949220040691e-13
 70
     192
  0
VERTEX
  8
Layer0
10
123.50752583163552
20
28.280117921278606
30
-2.3590298526262764e-13
 70
     192
  0
VERTEX
  8
Layer0
10
123.67731045066229
20
11.184894151162677
30
-6.618949220040691e-13
 70
     192
  0
VERTEX
  8
Layer0
10
123.67735654989337
20
28.690125544604324
30
-2.3590298526262764e-13
 70
     192
  0
VERTEX
  8
Layer0
10
123.73528263587485
20
10.744907844795234
30
-6.618949220040691e-13
 70
     192
  0
VERTEX
  8
Layer0
10
123.73528264520195
20
29.130117921278607
30
-2.3590298526262764e-13
 70
     192
  0
VERTEX
  8
Layer0
10
92.84289448977688
20
39.937729765852914
30
0.0
 70
     192
  0
VERTEX
  8
Layer0
10
102.00843242966035
20
29.570110297952127
30
-3.7523521791542827e-13
 70
     192
  0
VERTEX
  8
Layer0
10
92.84289448977688
20
-0.06227023414708477
30
0.0
 70
     192
  0
VERTEX
  8
Layer0
10
102.1782631479182
20
29.98011792127784
30
-3.7523521791542827e-13
 70
     192
  0
VERTEX
  8
Layer0
10
102.44842480633463
20
30.33219944929497
30
-3.7523521791542827e-13
 70
     192
  0
VERTEX
  8
Layer0
10
102.80050633435175
20
30.60236110771138
30
-3.7523521791542827e-13
 70
     192
  0
VERTEX
  8
Layer0
10
103.21051395767748
20
30.772191825969248
30
-3.7523521791542827e-13
 70
     192
  0
VERTEX
  8
Layer0
10
152.8428944897769
20
39.937729765852914
30
0.0
 70
     192
  0
VERTEX
  8
Layer0
10
101.95050633435174
20
29.13011792127784
30
-3.7523521791542827e-13
 70
     192
  0
VERTEX
  8
Layer0
10
103.65050633435176
20
30.83011792127783
30
-3.7523521791542827e-13
 70
     192
  0
VERTEX
  8
Layer0
10
104.09049871102606
20
30.772191825969237
30
-3.7523521791542827e-13
 70
     192
  0
VERTEX
  8
Layer0
10
104.50050633435175
20
30.60236110771136
30
-3.7523521791542827e-13
 70
     192
  0
VERTEX
  8
Layer0
10
104.85258786236888
20
30.33219944929494
30
-3.7523521791542827e-13
 70
     192
  0
VERTEX
  8
Layer0
10
105.1227495207853
20
29.980117921277806
30
-3.7523521791542827e-13
 70
     192
  0
VERTEX
  8
Layer0
10
105.29258023904316
20
29.570110297952095
30
-3.7523521791542827e-13
 70
     192
  0
VERTEX
  8
Layer0
10
105.35050633435173
20
29.1301179212778
30
-3.7523521791542827e-13
 70
     192
  0
VERTEX
  8
Layer0
10
111.47094086588402
20
30.164990615825488
30
-7.976692033957287e-14
 70
     192
  0
VERTEX
  8
Layer0
10
108.95397250817676
20
29.47238320286574
30
-7.976692033957287e-14
 70
     192
  0
VERTEX
  8
Layer0
10
106.7020277567681
20
28.151936468313615
30
-7.976692033957287e-14
 70
     192
  0
VERTEX
  8
Layer0
10
114.081405595799
20
30.18255865658751
30
-7.976692033957287e-14
 70
     192
  0
VERTEX
  8
Layer0
10
116.60746784057494
20
29.523890092206447
30
-7.976692033957287e-14
 70
     192
  0
VERTEX
  8
Layer0
10
121.59529026852765
20
30.772191825970005
30
-2.3590298526262764e-13
 70
     192
  0
VERTEX
  8
Layer0
10
121.18528264520195
20
30.602361107712127
30
-2.3590298526262764e-13
 70
     192
  0
VERTEX
  8
Layer0
10
120.83320111718481
20
30.332199449295707
30
-2.3590298526262764e-13
 70
     192
  0
VERTEX
  8
Layer0
10
120.5630394587684
20
29.98011792127858
30
-2.3590298526262764e-13
 70
     192
  0
VERTEX
  8
Layer0
10
120.39320874051053
20
29.57011029795286
30
-2.3590298526262764e-13
 70
     192
  0
VERTEX
  8
Layer0
10
122.03528264520193
20
30.83011792127859
30
-2.3590298526262764e-13
 70
     192
  0
VERTEX
  8
Layer0
10
122.47527502187621
20
30.772191825970015
30
-2.3590298526262764e-13
 70
     192
  0
VERTEX
  8
Layer0
10
122.88528264520194
20
30.602361107712145
30
-2.3590298526262764e-13
 70
     192
  0
VERTEX
  8
Layer0
10
123.23736417321908
20
30.332199449295736
30
-2.3590298526262764e-13
 70
     192
  0
VERTEX
  8
Layer0
10
123.5075258316355
20
29.980117921278605
30
-2.3590298526262764e-13
 70
     192
  0
VERTEX
  8
Layer0
10
123.67735654989336
20
29.570110297952894
30
-2.3590298526262764e-13
 70
     192
  0
VERTEX
  8
Layer0
10
141.7428944897769
20
31.842985654178683
30
0.0
 70
     192
  0
VERTEX
  8
Layer0
10
141.2872595711665
20
31.493364684463327
30
0.0
 70
     192
  0
VERTEX
  8
Layer0
10
140.93763860145114
20
31.037729765852923
30
0.0
 70
     192
  0
VERTEX
  8
Layer0
10
140.71785767194095
20
30.507131665078465
30
0.0
 70
     192
  0
VERTEX
  8
Layer0
10
140.6428944897769
20
29.937729765852918
30
0.0
 70
     192
  0
VERTEX
  8
Layer0
10
142.27349259055134
20
32.06276658368887
30
0.0
 70
     192
  0
VERTEX
  8
Layer0
10
142.8428944897769
20
32.137729765852924
30
0.0
 70
     192
  0
VERTEX
  8
Layer0
10
143.41229638900245
20
32.06276658368887
30
0.0
 70
     192
  0
VERTEX
  8
Layer0
10
143.9428944897769
20
31.842985654178683
30
0.0
 70
     192
  0
VERTEX
  8
Layer0
10
144.3985294083873
20
31.493364684463327
30
0.0
 70
     192
  0
VERTEX
  8
Layer0
10
144.74815037810265
20
31.037729765852916
30
0.0
 70
     192
  0
VERTEX
  8
Layer0
10
144.96793130761284
20
30.507131665078465
30
0.0
 70
     192
  0
VERTEX
  8
Layer0
10
145.0428944897769
20
29.937729765852918
30
0.0
 70
     192
  0
VERTEX
  8
Layer0
10
145.0428944897769
20
9.937729765852914
30
0.0
 70
     192
  0
VERTEX
  8
Layer0
10
103.21051395767746
20
9.103267705736577
30
-6.357186499410163e-13
 70
     192
  0
VERTEX
  8
Layer0
10
152.8428944897769
20
-0.06227023414708477
30
0.0
 70
     192
  0
VERTEX
  8
Layer0
10
102.80050633435175
20
9.273098423994446
30
-6.357186499410163e-13
 70
     192
  0
VERTEX
  8
Layer0
10
102.44842480633463
20
9.543260082410859
30
-6.357186499410163e-13
 70
     192
  0
VERTEX
  8
Layer0
10
102.1782631479182
20
9.89534161042799
30
-6.357186499410163e-13
 70
     192
  0
VERTEX
  8
Layer0
10
102.00843242966032
20
10.305349233753702
30
-6.357186499410163e-13
 70
     192
  0
VERTEX
  8
Layer0
10
101.95050633435174
20
10.745341610427985
30
-6.357186499410163e-13
 70
     192
  0
VERTEX
  8
Layer0
10
103.65050633435175
20
9.045341610427997
30
-6.357186499410163e-13
 70
     192
  0
VERTEX
  8
Layer0
10
104.09049871102603
20
9.103267705736583
30
-6.357186499410163e-13
 70
     192
  0
VERTEX
  8
Layer0
10
104.50050633435175
20
9.273098423994456
30
-6.357186499410163e-13
 70
     192
  0
VERTEX
  8
Layer0
10
104.85258786236888
20
9.543260082410875
30
-6.357186499410163e-13
 70
     192
  0
VERTEX
  8
Layer0
10
105.12274952078529
20
9.895341610428007
30
-6.357186499410163e-13
 70
     192
  0
VERTEX
  8
Layer0
10
105.29258023904316
20
10.305349233753722
30
-6.357186499410163e-13
 70
     192
  0
VERTEX
  8
Layer0
10
105.35050633435173
20
10.745341610428008
30
-6.357186499410163e-13
 70
     192
  0
VERTEX
  8
Layer0
10
111.60438338375468
20
10.336542407449777
30
-7.976692033957287e-14
 70
     192
  0
VERTEX
  8
Layer0
10
109.07832113897874
20
10.995210971830849
30
-7.976692033957287e-14
 70
     192
  0
VERTEX
  8
Layer0
10
106.80880834680805
20
12.285228967193706
30
-7.976692033957287e-14
 70
     192
  0
VERTEX
  8
Layer0
10
114.21484811366966
20
10.354110448211802
30
-7.976692033957287e-14
 70
     192
  0
VERTEX
  8
Layer0
10
121.59546228199119
20
9.102609779948974
30
-6.618949220040691e-13
 70
     192
  0
VERTEX
  8
Layer0
10
116.73181647137692
20
11.046717861171546
30
-7.976692033957287e-14
 70
     192
  0
VERTEX
  8
Layer0
10
121.18543687075343
20
9.27239754802571
30
-6.618949220040691e-13
 70
     192
  0
VERTEX
  8
Layer0
10
120.83332704460777
20
9.542522323603334
30
-6.618949220040691e-13
 70
     192
  0
VERTEX
  8
Layer0
10
120.56312850631707
20
9.894575549628534
30
-6.618949220040691e-13
 70
     192
  0
VERTEX
  8
Layer0
10
118.98376122278559
20
12.367164595723676
30
-7.976692033957287e-14
 70
     192
  0
VERTEX
  8
Layer0
10
120.39325483974163
20
10.304565380543156
30
-6.618949220040691e-13
 70
     192
  0
VERTEX
  8
Layer0
10
120.33528265452905
20
10.744551686910597
30
-6.618949220040691e-13
 70
     192
  0
VERTEX
  8
Layer0
10
122.03546072414427
20
9.044729775180008
30
-6.618949220040691e-13
 70
     192
  0
VERTEX
  8
Layer0
10
122.47544703051172
20
9.102701960392581
30
-6.618949220040691e-13
 70
     192
  0
VERTEX
  8
Layer0
10
122.88543686142633
20
9.272575626968028
30
-6.618949220040691e-13
 70
     192
  0
VERTEX
  8
Layer0
10
123.23749008745155
20
9.542774165258736
30
-6.618949220040691e-13
 70
     192
  0
VERTEX
  8
Layer0
10
123.50761486302916
20
9.894883991404388
30
-6.618949220040691e-13
 70
     192
  0
VERTEX
  8
Layer0
10
123.6774026311059
20
10.304909402642163
30
-6.618949220040691e-13
 70
     192
  0
VERTEX
  8
Layer0
10
141.7428944897769
20
8.03247387752715
30
0.0
 70
     192
  0
VERTEX
  8
Layer0
10
141.2872595711665
20
8.382094847242511
30
0.0
 70
     192
  0
VERTEX
  8
Layer0
10
140.93763860145114
20
8.837729765852917
30
0.0
 70
     192
  0
VERTEX
  8
Layer0
10
140.71785767194095
20
9.36832786662737
30
0.0
 70
     192
  0
VERTEX
  8
Layer0
10
140.6428944897769
20
9.937729765852914
30
0.0
 70
     192
  0
VERTEX
  8
Layer0
10
142.27349259055134
20
7.812692948016966
30
0.0
 70
     192
  0
VERTEX
  8
Layer0
10
142.8428944897769
20
7.737729765852915
30
0.0
 70
     192
  0
VERTEX
  8
Layer0
10
143.41229638900245
20
7.812692948016966
30
0.0
 70
     192
  0
VERTEX
  8
Layer0
10
143.9428944897769
20
8.03247387752715
30
0.0
 70
     192
  0
VERTEX
  8
Layer0
10
144.3985294083873
20
8.382094847242511
30
0.0
 70
     192
  0
VERTEX
  8
Layer0
10
144.74815037810265
20
8.837729765852915
30
0.0
 70
     192
  0
VERTEX
  8
Layer0
10
144.96793130761284
20
9.368327866627368
30
0.0
 70
     192
  0
VERTEX
  8
Layer0
10
140.71785767194095
20
29.36832786662737
30
0.0
 70
     192
  0
VERTEX
  8
Layer0
10
140.71785767194095
20
10.507131665078461
30
0.0
 70
     192
  0
VERTEX
  8
Layer0
10
140.93763860145114
20
28.83772976585292
30
0.0
 70
     192
  0
VERTEX
  8
Layer0
10
140.93763860145114
20
11.037729765852916
30
0.0
 70
     192
  0
VERTEX
  8
Layer0
10
141.2872595711665
20
28.382094847242513
30
0.0
 70
     192
  0
VERTEX
  8
Layer0
10
141.2872595711665
20
11.493364684463321
30
0.0
 70
     192
  0
VERTEX
  8
Layer0
10
141.7428944897769
20
28.032473877527156
30
0.0
 70
     192
  0
VERTEX
  8
Layer0
10
141.7428944897769
20
11.84298565417868
30
0.0
 70
     192
  0
VERTEX
  8
Layer0
10
142.27349259055134
20
27.81269294801697
30
0.0
 70
     192
  0
VERTEX
  8
Layer0
10
142.27349259055134
20
12.062766583688866
30
0.0
 70
     192
  0
VERTEX
  8
Layer0
10
142.8428944897769
20
27.73772976585292
30
0.0
 70
     192
  0
VERTEX
  8
Layer0
10
142.8428944897769
20
12.137729765852916
30
0.0
 70
     192
  0
VERTEX
  8
Layer0
10
143.41229638900245
20
27.81269294801697
30
0.0
 70
     192
  0
VERTEX
  8
Layer0
10
143.41229638900245
20
12.062766583688864
30
0.0
 70
     192
  0
VERTEX
  8
Layer0
10
143.9428944897769
20
28.032473877527156
30
0.0
 70
     192
  0
VERTEX
  8
Layer0
10
143.9428944897769
20
11.84298565417868
30
0.0
 70
     192
  0
VERTEX
  8
Layer0
10
144.3985294083873
20
28.382094847242513
30
0.0
 70
     192
  0
VERTEX
  8
Layer0
10
144.3985294083873
20
11.49336468446332
30
0.0
 70
     192
  0
VERTEX
  8
Layer0
10
144.74815037810265
20
28.83772976585292
30
0.0
 70
     192
  0
VERTEX
  8
Layer0
10
144.74815037810265
20
11.037729765852914
30
0.0
 70
     192
  0
VERTEX
  8
Layer0
10
144.96793130761284
20
29.36832786662737
30
0.0
 70
     192
  0
VERTEX
  8
Layer0
10
144.96793130761284
20
10.507131665078461
30
0.0
 70
     192
  0
VERTEX
  8
Layer0
10
120.39316265929801
20
11.18455012906367
30
-6.618949220040691e-13
 70
     192
  0
VERTEX
  8
Layer0
10
120.81721605460179
20
14.225464389049863
30
-7.976692033957287e-14
 70
     192
  0
VERTEX
  8
Layer0
10
120.56295042737476
20
11.594575540301443
30
-6.618949220040691e-13
 70
     192
  0
VERTEX
  8
Layer0
10
120.83307520295237
20
11.946685366447097
30
-6.618949220040691e-13
 70
     192
  0
VERTEX
  8
Layer0
10
122.10723404996463
20
16.494977181220538
30
-7.976692033957287e-14
 70
     192
  0
VERTEX
  8
Layer0
10
121.18512842897759
20
12.216883904737804
30
-6.618949220040691e-13
 70
     192
  0
VERTEX
  8
Layer0
10
121.5951182598922
20
12.38675757131325
30
-6.618949220040691e-13
 70
     192
  0
VERTEX
  8
Layer0
10
122.03510456625965
20
12.444729756525824
30
-6.618949220040691e-13
 70
     192
  0
VERTEX
  8
Layer0
10
122.47510300841272
20
12.386849751756857
30
-6.618949220040691e-13
 70
     192
  0
VERTEX
  8
Layer0
10
102.80050633435174
20
12.217584796861539
30
-6.357186499410163e-13
 70
     192
  0
VERTEX
  8
Layer0
10
102.93745440596999
20
18.887596908125822
30
-7.976692033957287e-14
 70
     192
  0
VERTEX
  8
Layer0
10
103.21051395767746
20
12.387415515119411
30
-6.357186499410163e-13
 70
     192
  0
VERTEX
  8
Layer0
10
102.91988636520799
20
21.49806163804081
30
-7.976692033957287e-14
 70
     192
  0
VERTEX
  8
Layer0
10
103.63006181892973
20
16.37062855041857
30
-7.976692033957287e-14
 70
     192
  0
VERTEX
  8
Layer0
10
103.65050633435175
20
12.445341610427997
30
-6.357186499410163e-13
 70
     192
  0
VERTEX
  8
Layer0
10
104.95050855348187
20
14.118683799009911
30
-7.976692033957287e-14
 70
     192
  0
VERTEX
  8
Layer0
10
104.09049871102603
20
12.387415515119416
30
-6.357186499410163e-13
 70
     192
  0
VERTEX
  8
Layer0
10
104.50050633435173
20
12.217584796861548
30
-6.357186499410163e-13
 70
     192
  0
VERTEX
  8
Layer0
10
104.85258786236886
20
11.947423138445135
30
-6.357186499410163e-13
 70
     192
  0
VERTEX
  8
Layer0
10
105.12274952078529
20
11.595341610428006
30
-6.357186499410163e-13
 70
     192
  0
VERTEX
  8
Layer0
10
105.29258023904316
20
11.185333987102291
30
-6.357186499410163e-13
 70
     192
  0
VERTEX
  8
Layer0
10
102.00843242966032
20
28.690125544603557
30
-3.7523521791542827e-13
 70
     192
  0
VERTEX
  8
Layer0
10
102.00843242966032
20
11.185333987102272
30
-6.357186499410163e-13
 70
     192
  0
VERTEX
  8
Layer0
10
102.17826314791819
20
28.280117921277842
30
-3.7523521791542827e-13
 70
     192
  0
VERTEX
  8
Layer0
10
102.1782631479182
20
11.595341610427988
30
-6.357186499410163e-13
 70
     192
  0
VERTEX
  8
Layer0
10
102.4484248063346
20
27.928036393260708
30
-3.7523521791542827e-13
 70
     192
  0
VERTEX
  8
Layer0
10
102.4484248063346
20
11.947423138445119
30
-6.357186499410163e-13
 70
     192
  0
VERTEX
  8
Layer0
10
102.80050633435174
20
27.657874734844288
30
-3.7523521791542827e-13
 70
     192
  0
VERTEX
  8
Layer0
10
103.21051395767743
20
27.48804401658641
30
-3.7523521791542827e-13
 70
     192
  0
VERTEX
  8
Layer0
10
103.57855492958905
20
24.02412388281676
30
-7.976692033957287e-14
 70
     192
  0
VERTEX
  8
Layer0
10
103.65050633435172
20
27.430117921277827
30
-3.7523521791542827e-13
 70
     192
  0
VERTEX
  8
Layer0
10
104.8685729249519
20
26.293636674987432
30
-7.976692033957287e-14
 70
     192
  0
VERTEX
  8
Layer0
10
104.090498711026
20
27.4880440165864
30
-3.7523521791542827e-13
 70
     192
  0
VERTEX
  8
Layer0
10
104.50050633435173
20
27.65787473484427
30
-3.7523521791542827e-13
 70
     192
  0
VERTEX
  8
Layer0
10
104.85258786236886
20
27.92803639326068
30
-3.7523521791542827e-13
 70
     192
  0
VERTEX
  8
Layer0
10
105.12274952078529
20
28.28011792127781
30
-3.7523521791542827e-13
 70
     192
  0
VERTEX
  8
Layer0
10
105.29258023904315
20
28.69012554460352
30
-3.7523521791542827e-13
 70
     192
  0
VERTEX
  8
Layer0
10
0.0
 20
 0.0
 30
0.0
 70
     128
 71
-1
 72
-2
 73
3
  0
VERTEX
  8
Layer0
10
0.0
 20
 0.0
 30
0.0
 70
     128
 71
-2
 72
-1
 73
4
  0
VERTEX
  8
Layer0
10
0.0
 20
 0.0
 30
0.0
 70
     128
 71
-3
 72
2
 73
-5
  0
VERTEX
  8
Layer0
10
0.0
 20
 0.0
 30
0.0
 70
     128
 71
-3
 72
5
 73
-6
  0
VERTEX
  8
Layer0
10
0.0
 20
 0.0
 30
0.0
 70
     128
 71
-3
 72
-6
 73
7
  0
VERTEX
  8
Layer0
10
0.0
 20
 0.0
 30
0.0
 70
     128
 71
-7
 72
6
 73
-8
  0
VERTEX
  8
Layer0
10
0.0
 20
 0.0
 30
0.0
 70
     128
 71
-7
 72
8
 73
-9
  0
VERTEX
  8
Layer0
10
0.0
 20
 0.0
 30
0.0
 70
     128
 71
-7
 72
9
 73
-10
  0
VERTEX
  8
Layer0
10
0.0
 20
 0.0
 30
0.0
 70
     128
 71
-7
 72
10
 73
-11
  0
VERTEX
  8
Layer0
10
0.0
 20
 0.0
 30
0.0
 70
     128
 71
-7
 72
-11
 73
12
  0
VERTEX
  8
Layer0
10
0.0
 20
 0.0
 30
0.0
 70
     128
 71
-12
 72
11
 73
-13
  0
VERTEX
  8
Layer0
10
0.0
 20
 0.0
 30
0.0
 70
     128
 71
-12
 72
-13
 73
14
  0
VERTEX
  8
Layer0
10
0.0
 20
 0.0
 30
0.0
 70
     128
 71
-14
 72
-13
 73
-15
  0
VERTEX
  8
Layer0
10
0.0
 20
 0.0
 30
0.0
 70
     128
 71
-15
 72
-13
 73
16
  0
VERTEX
  8
Layer0
10
0.0
 20
 0.0
 30
0.0
 70
     128
 71
-16
 72
13
 73
-17
  0
VERTEX
  8
Layer0
10
0.0
 20
 0.0
 30
0.0
 70
     128
 71
-16
 72
-17
 73
18
  0
VERTEX
  8
Layer0
10
0.0
 20
 0.0
 30
0.0
 70
     128
 71
-18
 72
17
 73
-19
  0
VERTEX
  8
Layer0
10
0.0
 20
 0.0
 30
0.0
 70
     128
 71
-18
 72
-19
 73
20
  0
VERTEX
  8
Layer0
10
0.0
 20
 0.0
 30
0.0
 70
     128
 71
-20
 72
19
 73
-21
  0
VERTEX
  8
Layer0
10
0.0
 20
 0.0
 30
0.0
 70
     128
 71
-20
 72
-21
 73
22
  0
VERTEX
  8
Layer0
10
0.0
 20
 0.0
 30
0.0
 70
     128
 71
-22
 72
21
 73
-23
  0
VERTEX
  8
Layer0
10
0.0
 20
 0.0
 30
0.0
 70
     128
 71
-24
 72
-25
 73
26
  0
VERTEX
  8
Layer0
10
0.0
 20
 0.0
 30
0.0
 70
     128
 71
-25
 72
-24
 73
27
  0
VERTEX
  8
Layer0
10
0.0
 20
 0.0
 30
0.0
 70
     128
 71
-27
 72
-24
 73
28
  0
VERTEX
  8
Layer0
10
0.0
 20
 0.0
 30
0.0
 70
     128
 71
-28
 72
-24
 73
29
  0
VERTEX
  8
Layer0
10
0.0
 20
 0.0
 30
0.0
 70
     128
 71
-29
 72
-24
 73
30
  0
VERTEX
  8
Layer0
10
0.0
 20
 0.0
 30
0.0
 70
     128
 71
-30
 72
24
 73
-31
  0
VERTEX
  8
Layer0
10
0.0
 20
 0.0
 30
0.0
 70
     128
 71
-26
 72
25
 73
-32
  0
VERTEX
  8
Layer0
10
0.0
 20
 0.0
 30
0.0
 70
     128
 71
-30
 72
-31
 73
33
  0
VERTEX
  8
Layer0
10
0.0
 20
 0.0
 30
0.0
 70
     128
 71
-33
 72
-31
 73
34
  0
VERTEX
  8
Layer0
10
0.0
 20
 0.0
 30
0.0
 70
     128
 71
-34
 72
-31
 73
35
  0
VERTEX
  8
Layer0
10
0.0
 20
 0.0
 30
0.0
 70
     128
 71
-35
 72
-31
 73
36
  0
VERTEX
  8
Layer0
10
0.0
 20
 0.0
 30
0.0
 70
     128
 71
-36
 72
-31
 73
37
  0
VERTEX
  8
Layer0
10
0.0
 20
 0.0
 30
0.0
 70
     128
 71
-37
 72
-31
 73
38
  0
VERTEX
  8
Layer0
10
0.0
 20
 0.0
 30
0.0
 70
     128
 71
-38
 72
-31
 73
39
  0
VERTEX
  8
Layer0
10
0.0
 20
 0.0
 30
0.0
 70
     128
 71
-39
 72
-31
 73
-40
  0
VERTEX
  8
Layer0
10
0.0
 20
 0.0
 30
0.0
 70
     128
 71
-39
 72
40
 73
-41
  0
VERTEX
  8
Layer0
10
0.0
 20
 0.0
 30
0.0
 70
     128
 71
-39
 72
41
 73
-42
  0
VERTEX
  8
Layer0
10
0.0
 20
 0.0
 30
0.0
 70
     128
 71
-40
 72
-31
 73
43
  0
VERTEX
  8
Layer0
10
0.0
 20
 0.0
 30
0.0
 70
     128
 71
-43
 72
-31
 73
44
  0
VERTEX
  8
Layer0
10
0.0
 20
 0.0
 30
0.0
 70
     128
 71
-44
 72
-31
 73
-45
  0
VERTEX
  8
Layer0
10
0.0
 20
 0.0
 30
0.0
 70
     128
 71
-44
 72
45
 73
-46
  0
VERTEX
  8
Layer0
10
0.0
 20
 0.0
 30
0.0
 70
     128
 71
-44
 72
46
 73
-47
  0
VERTEX
  8
Layer0
10
0.0
 20
 0.0
 30
0.0
 70
     128
 71
-44
 72
-47
 73
1
  0
VERTEX
  8
Layer0
10
0.0
 20
 0.0
 30
0.0
 70
     128
 71
-1
 72
47
 73
-48
  0
VERTEX
  8
Layer0
10
0.0
 20
 0.0
 30
0.0
 70
     128
 71
-1
 72
48
 73
-49
  0
VERTEX
  8
Layer0
10
0.0
 20
 0.0
 30
0.0
 70
     128
 71
-1
 72
49
 73
-4
  0
VERTEX
  8
Layer0
10
0.0
 20
 0.0
 30
0.0
 70
     128
 71
-45
 72
-31
 73
50
  0
VERTEX
  8
Layer0
10
0.0
 20
 0.0
 30
0.0
 70
     128
 71
-50
 72
-31
 73
51
  0
VERTEX
  8
Layer0
10
0.0
 20
 0.0
 30
0.0
 70
     128
 71
-51
 72
-31
 73
52
  0
VERTEX
  8
Layer0
10
0.0
 20
 0.0
 30
0.0
 70
     128
 71
-52
 72
-31
 73
53
  0
VERTEX
  8
Layer0
10
0.0
 20
 0.0
 30
0.0
 70
     128
 71
-53
 72
-31
 73
54
  0
VERTEX
  8
Layer0
10
0.0
 20
 0.0
 30
0.0
 70
     128
 71
-54
 72
-31
 73
55
  0
VERTEX
  8
Layer0
10
0.0
 20
 0.0
 30
0.0
 70
     128
 71
-55
 72
-31
 73
23
  0
VERTEX
  8
Layer0
10
0.0
 20
 0.0
 30
0.0
 70
     128
 71
-23
 72
-31
 73
-56
  0
VERTEX
  8
Layer0
10
0.0
 20
 0.0
 30
0.0
 70
     128
 71
-23
 72
56
 73
-57
  0
VERTEX
  8
Layer0
10
0.0
 20
 0.0
 30
0.0
 70
     128
 71
-23
 72
57
 73
-58
  0
VERTEX
  8
Layer0
10
0.0
 20
 0.0
 30
0.0
 70
     128
 71
-23
 72
58
 73
-59
  0
VERTEX
  8
Layer0
10
0.0
 20
 0.0
 30
0.0
 70
     128
 71
-23
 72
59
 73
-60
  0
VERTEX
  8
Layer0
10
0.0
 20
 0.0
 30
0.0
 70
     128
 71
-56
 72
-31
 73
61
  0
VERTEX
  8
Layer0
10
0.0
 20
 0.0
 30
0.0
 70
     128
 71
-61
 72
-31
 73
62
  0
VERTEX
  8
Layer0
10
0.0
 20
 0.0
 30
0.0
 70
     128
 71
-62
 72
-31
 73
63
  0
VERTEX
  8
Layer0
10
0.0
 20
 0.0
 30
0.0
 70
     128
 71
-63
 72
-31
 73
64
  0
VERTEX
  8
Layer0
10
0.0
 20
 0.0
 30
0.0
 70
     128
 71
-64
 72
-31
 73
65
  0
VERTEX
  8
Layer0
10
0.0
 20
 0.0
 30
0.0
 70
     128
 71
-65
 72
-31
 73
66
  0
VERTEX
  8
Layer0
10
0.0
 20
 0.0
 30
0.0
 70
     128
 71
-66
 72
-31
 73
67
  0
VERTEX
  8
Layer0
10
0.0
 20
 0.0
 30
0.0
 70
     128
 71
-67
 72
-31
 73
68
  0
VERTEX
  8
Layer0
10
0.0
 20
 0.0
 30
0.0
 70
     128
 71
-68
 72
-31
 73
-69
  0
VERTEX
  8
Layer0
10
0.0
 20
 0.0
 30
0.0
 70
     128
 71
-26
 72
-70
 73
71
  0
VERTEX
  8
Layer0
10
0.0
 20
 0.0
 30
0.0
 70
     128
 71
-70
 72
-26
 73
72
  0
VERTEX
  8
Layer0
10
0.0
 20
 0.0
 30
0.0
 70
     128
 71
-72
 72
-26
 73
73
  0
VERTEX
  8
Layer0
10
0.0
 20
 0.0
 30
0.0
 70
     128
 71
-73
 72
-26
 73
74
  0
VERTEX
  8
Layer0
10
0.0
 20
 0.0
 30
0.0
 70
     128
 71
-74
 72
-26
 73
75
  0
VERTEX
  8
Layer0
10
0.0
 20
 0.0
 30
0.0
 70
     128
 71
-75
 72
-26
 73
76
  0
VERTEX
  8
Layer0
10
0.0
 20
 0.0
 30
0.0
 70
     128
 71
-76
 72
-26
 73
-32
  0
VERTEX
  8
Layer0
10
0.0
 20
 0.0
 30
0.0
 70
     128
 71
-71
 72
70
 73
-77
  0
VERTEX
  8
Layer0
10
0.0
 20
 0.0
 30
0.0
 70
     128
 71
-71
 72
77
 73
-78
  0
VERTEX
  8
Layer0
10
0.0
 20
 0.0
 30
0.0
 70
     128
 71
-71
 72
78
 73
-79
  0
VERTEX
  8
Layer0
10
0.0
 20
 0.0
 30
0.0
 70
     128
 71
-71
 72
79
 73
-80
  0
VERTEX
  8
Layer0
10
0.0
 20
 0.0
 30
0.0
 70
     128
 71
-71
 72
80
 73
-81
  0
VERTEX
  8
Layer0
10
0.0
 20
 0.0
 30
0.0
 70
     128
 71
-71
 72
81
 73
-82
  0
VERTEX
  8
Layer0
10
0.0
 20
 0.0
 30
0.0
 70
     128
 71
-71
 72
82
 73
-83
  0
VERTEX
  8
Layer0
10
0.0
 20
 0.0
 30
0.0
 70
     128
 71
-71
 72
-83
 73
-84
  0
VERTEX
  8
Layer0
10
0.0
 20
 0.0
 30
0.0
 70
     128
 71
-84
 72
-83
 73
85
  0
VERTEX
  8
Layer0
10
0.0
 20
 0.0
 30
0.0
 70
     128
 71
-85
 72
-83
 73
86
  0
VERTEX
  8
Layer0
10
0.0
 20
 0.0
 30
0.0
 70
     128
 71
-71
 72
84
 73
-87
  0
VERTEX
  8
Layer0
10
0.0
 20
 0.0
 30
0.0
 70
     128
 71
-71
 72
-87
 73
-88
  0
VERTEX
  8
Layer0
10
0.0
 20
 0.0
 30
0.0
 70
     128
 71
-88
 72
87
 73
-89
  0
VERTEX
  8
Layer0
10
0.0
 20
 0.0
 30
0.0
 70
     128
 71
-88
 72
-89
 73
90
  0
VERTEX
  8
Layer0
10
0.0
 20
 0.0
 30
0.0
 70
     128
 71
-90
 72
-89
 73
91
  0
VERTEX
  8
Layer0
10
0.0
 20
 0.0
 30
0.0
 70
     128
 71
-91
 72
-89
 73
92
  0
VERTEX
  8
Layer0
10
0.0
 20
 0.0
 30
0.0
 70
     128
 71
-92
 72
89
 73
-93
  0
VERTEX
  8
Layer0
10
0.0
 20
 0.0
 30
0.0
 70
     128
 71
-92
 72
-93
 73
94
  0
VERTEX
  8
Layer0
10
0.0
 20
 0.0
 30
0.0
 70
     128
 71
-94
 72
-93
 73
95
  0
VERTEX
  8
Layer0
10
0.0
 20
 0.0
 30
0.0
 70
     128
 71
-71
 72
88
 73
-96
  0
VERTEX
  8
Layer0
10
0.0
 20
 0.0
 30
0.0
 70
     128
 71
-71
 72
96
 73
-97
  0
VERTEX
  8
Layer0
10
0.0
 20
 0.0
 30
0.0
 70
     128
 71
-71
 72
97
 73
-98
  0
VERTEX
  8
Layer0
10
0.0
 20
 0.0
 30
0.0
 70
     128
 71
-71
 72
98
 73
-99
  0
VERTEX
  8
Layer0
10
0.0
 20
 0.0
 30
0.0
 70
     128
 71
-71
 72
99
 73
-100
  0
VERTEX
  8
Layer0
10
0.0
 20
 0.0
 30
0.0
 70
     128
 71
-71
 72
100
 73
-101
  0
VERTEX
  8
Layer0
10
0.0
 20
 0.0
 30
0.0
 70
     128
 71
-71
 72
101
 73
-22
  0
VERTEX
  8
Layer0
10
0.0
 20
 0.0
 30
0.0
 70
     128
 71
-71
 72
-22
 73
-102
  0
VERTEX
  8
Layer0
10
0.0
 20
 0.0
 30
0.0
 70
     128
 71
-102
 72
-22
 73
103
  0
VERTEX
  8
Layer0
10
0.0
 20
 0.0
 30
0.0
 70
     128
 71
-103
 72
-22
 73
-23
  0
VERTEX
  8
Layer0
10
0.0
 20
 0.0
 30
0.0
 70
     128
 71
-103
 72
-23
 73
104
  0
VERTEX
  8
Layer0
10
0.0
 20
 0.0
 30
0.0
 70
     128
 71
-104
 72
-23
 73
105
  0
VERTEX
  8
Layer0
10
0.0
 20
 0.0
 30
0.0
 70
     128
 71
-105
 72
-23
 73
106
  0
VERTEX
  8
Layer0
10
0.0
 20
 0.0
 30
0.0
 70
     128
 71
-106
 72
-23
 73
-60
  0
VERTEX
  8
Layer0
10
0.0
 20
 0.0
 30
0.0
 70
     128
 71
-71
 72
102
 73
-107
  0
VERTEX
  8
Layer0
10
0.0
 20
 0.0
 30
0.0
 70
     128
 71
-71
 72
107
 73
-108
  0
VERTEX
  8
Layer0
10
0.0
 20
 0.0
 30
0.0
 70
     128
 71
-71
 72
108
 73
-109
  0
VERTEX
  8
Layer0
10
0.0
 20
 0.0
 30
0.0
 70
     128
 71
-71
 72
109
 73
-110
  0
VERTEX
  8
Layer0
10
0.0
 20
 0.0
 30
0.0
 70
     128
 71
-71
 72
110
 73
-111
  0
VERTEX
  8
Layer0
10
0.0
 20
 0.0
 30
0.0
 70
     128
 71
-71
 72
111
 73
-112
  0
VERTEX
  8
Layer0
10
0.0
 20
 0.0
 30
0.0
 70
     128
 71
-71
 72
112
 73
-113
  0
VERTEX
  8
Layer0
10
0.0
 20
 0.0
 30
0.0
 70
     128
 71
-71
 72
113
 73
-69
  0
VERTEX
  8
Layer0
10
0.0
 20
 0.0
 30
0.0
 70
     128
 71
-71
 72
-69
 73
31
  0
VERTEX
  8
Layer0
10
0.0
 20
 0.0
 30
0.0
 70
     128
 71
-114
 72
-106
 73
60
  0
VERTEX
  8
Layer0
10
0.0
 20
 0.0
 30
0.0
 70
     128
 71
-106
 72
-114
 73
115
  0
VERTEX
  8
Layer0
10
0.0
 20
 0.0
 30
0.0
 70
     128
 71
-115
 72
114
 73
-116
  0
VERTEX
  8
Layer0
10
0.0
 20
 0.0
 30
0.0
 70
     128
 71
-115
 72
-116
 73
117
  0
VERTEX
  8
Layer0
10
0.0
 20
 0.0
 30
0.0
 70
     128
 71
-117
 72
116
 73
-118
  0
VERTEX
  8
Layer0
10
0.0
 20
 0.0
 30
0.0
 70
     128
 71
-117
 72
-118
 73
119
  0
VERTEX
  8
Layer0
10
0.0
 20
 0.0
 30
0.0
 70
     128
 71
-119
 72
118
 73
-120
  0
VERTEX
  8
Layer0
10
0.0
 20
 0.0
 30
0.0
 70
     128
 71
-119
 72
-120
 73
121
  0
VERTEX
  8
Layer0
10
0.0
 20
 0.0
 30
0.0
 70
     128
 71
-121
 72
120
 73
-122
  0
VERTEX
  8
Layer0
10
0.0
 20
 0.0
 30
0.0
 70
     128
 71
-121
 72
-122
 73
123
  0
VERTEX
  8
Layer0
10
0.0
 20
 0.0
 30
0.0
 70
     128
 71
-123
 72
122
 73
-124
  0
VERTEX
  8
Layer0
10
0.0
 20
 0.0
 30
0.0
 70
     128
 71
-123
 72
-124
 73
125
  0
VERTEX
  8
Layer0
10
0.0
 20
 0.0
 30
0.0
 70
     128
 71
-125
 72
124
 73
-126
  0
VERTEX
  8
Layer0
10
0.0
 20
 0.0
 30
0.0
 70
     128
 71
-125
 72
-126
 73
127
  0
VERTEX
  8
Layer0
10
0.0
 20
 0.0
 30
0.0
 70
     128
 71
-127
 72
126
 73
-128
  0
VERTEX
  8
Layer0
10
0.0
 20
 0.0
 30
0.0
 70
     128
 71
-127
 72
-128
 73
129
  0
VERTEX
  8
Layer0
10
0.0
 20
 0.0
 30
0.0
 70
     128
 71
-129
 72
128
 73
-130
  0
VERTEX
  8
Layer0
10
0.0
 20
 0.0
 30
0.0
 70
     128
 71
-129
 72
-130
 73
131
  0
VERTEX
  8
Layer0
10
0.0
 20
 0.0
 30
0.0
 70
     128
 71
-131
 72
130
 73
-132
  0
VERTEX
  8
Layer0
10
0.0
 20
 0.0
 30
0.0
 70
     128
 71
-131
 72
-132
 73
133
  0
VERTEX
  8
Layer0
10
0.0
 20
 0.0
 30
0.0
 70
     128
 71
-133
 72
132
 73
-134
  0
VERTEX
  8
Layer0
10
0.0
 20
 0.0
 30
0.0
 70
     128
 71
-133
 72
-134
 73
135
  0
VERTEX
  8
Layer0
10
0.0
 20
 0.0
 30
0.0
 70
     128
 71
-135
 72
134
 73
-68
  0
VERTEX
  8
Layer0
10
0.0
 20
 0.0
 30
0.0
 70
     128
 71
-135
 72
-68
 73
69
  0
VERTEX
  8
Layer0
10
0.0
 20
 0.0
 30
0.0
 70
     128
 71
-93
 72
136
 73
-95
  0
VERTEX
  8
Layer0
10
0.0
 20
 0.0
 30
0.0
 70
     128
 71
-136
 72
93
 73
-137
  0
VERTEX
  8
Layer0
10
0.0
 20
 0.0
 30
0.0
 70
     128
 71
-136
 72
-137
 73
138
  0
VERTEX
  8
Layer0
10
0.0
 20
 0.0
 30
0.0
 70
     128
 71
-138
 72
-137
 73
139
  0
VERTEX
  8
Layer0
10
0.0
 20
 0.0
 30
0.0
 70
     128
 71
-139
 72
137
 73
-140
  0
VERTEX
  8
Layer0
10
0.0
 20
 0.0
 30
0.0
 70
     128
 71
-139
 72
-140
 73
141
  0
VERTEX
  8
Layer0
10
0.0
 20
 0.0
 30
0.0
 70
     128
 71
-141
 72
-140
 73
142
  0
VERTEX
  8
Layer0
10
0.0
 20
 0.0
 30
0.0
 70
     128
 71
-142
 72
-140
 73
143
  0
VERTEX
  8
Layer0
10
0.0
 20
 0.0
 30
0.0
 70
     128
 71
-143
 72
-140
 73
144
  0
VERTEX
  8
Layer0
10
0.0
 20
 0.0
 30
0.0
 70
     128
 71
-144
 72
140
 73
-14
  0
VERTEX
  8
Layer0
10
0.0
 20
 0.0
 30
0.0
 70
     128
 71
-144
 72
-14
 73
15
  0
VERTEX
  8
Layer0
10
0.0
 20
 0.0
 30
0.0
 70
     128
 71
-145
 72
-146
 73
147
  0
VERTEX
  8
Layer0
10
0.0
 20
 0.0
 30
0.0
 70
     128
 71
-146
 72
-145
 73
148
  0
VERTEX
  8
Layer0
10
0.0
 20
 0.0
 30
0.0
 70
     128
 71
-147
 72
146
 73
-149
  0
VERTEX
  8
Layer0
10
0.0
 20
 0.0
 30
0.0
 70
     128
 71
-147
 72
-149
 73
150
  0
VERTEX
  8
Layer0
10
0.0
 20
 0.0
 30
0.0
 70
     128
 71
-150
 72
149
 73
-151
  0
VERTEX
  8
Layer0
10
0.0
 20
 0.0
 30
0.0
 70
     128
 71
-150
 72
-151
 73
152
  0
VERTEX
  8
Layer0
10
0.0
 20
 0.0
 30
0.0
 70
     128
 71
-152
 72
-151
 73
153
  0
VERTEX
  8
Layer0
10
0.0
 20
 0.0
 30
0.0
 70
     128
 71
-153
 72
-151
 73
154
  0
VERTEX
  8
Layer0
10
0.0
 20
 0.0
 30
0.0
 70
     128
 71
-154
 72
-151
 73
155
  0
VERTEX
  8
Layer0
10
0.0
 20
 0.0
 30
0.0
 70
     128
 71
-155
 72
151
 73
-86
  0
VERTEX
  8
Layer0
10
0.0
 20
 0.0
 30
0.0
 70
     128
 71
-155
 72
-86
 73
156
  0
VERTEX
  8
Layer0
10
0.0
 20
 0.0
 30
0.0
 70
     128
 71
-156
 72
-86
 73
83
  0
VERTEX
  8
Layer0
10
0.0
 20
 0.0
 30
0.0
 70
     128
 71
-157
 72
-76
 73
32
  0
VERTEX
  8
Layer0
10
0.0
 20
 0.0
 30
0.0
 70
     128
 71
-76
 72
-157
 73
158
  0
VERTEX
  8
Layer0
10
0.0
 20
 0.0
 30
0.0
 70
     128
 71
-158
 72
157
 73
-159
  0
VERTEX
  8
Layer0
10
0.0
 20
 0.0
 30
0.0
 70
     128
 71
-158
 72
-159
 73
160
  0
VERTEX
  8
Layer0
10
0.0
 20
 0.0
 30
0.0
 70
     128
 71
-160
 72
159
 73
-161
  0
VERTEX
  8
Layer0
10
0.0
 20
 0.0
 30
0.0
 70
     128
 71
-160
 72
-161
 73
162
  0
VERTEX
  8
Layer0
10
0.0
 20
 0.0
 30
0.0
 70
     128
 71
-162
 72
161
 73
-163
  0
VERTEX
  8
Layer0
10
0.0
 20
 0.0
 30
0.0
 70
     128
 71
-162
 72
-163
 73
145
  0
VERTEX
  8
Layer0
10
0.0
 20
 0.0
 30
0.0
 70
     128
 71
-145
 72
-163
 73
-148
  0
VERTEX
  8
Layer0
10
0.0
 20
 0.0
 30
0.0
 70
     128
 71
-148
 72
163
 73
-164
  0
VERTEX
  8
Layer0
10
0.0
 20
 0.0
 30
0.0
 70
     128
 71
-148
 72
-164
 73
165
  0
VERTEX
  8
Layer0
10
0.0
 20
 0.0
 30
0.0
 70
     128
 71
-165
 72
164
 73
-166
  0
VERTEX
  8
Layer0
10
0.0
 20
 0.0
 30
0.0
 70
     128
 71
-165
 72
-166
 73
167
  0
VERTEX
  8
Layer0
10
0.0
 20
 0.0
 30
0.0
 70
     128
 71
-167
 72
166
 73
-168
  0
VERTEX
  8
Layer0
10
0.0
 20
 0.0
 30
0.0
 70
     128
 71
-167
 72
168
 73
-169
  0
VERTEX
  8
Layer0
10
0.0
 20
 0.0
 30
0.0
 70
     128
 71
-167
 72
169
 73
-170
  0
VERTEX
  8
Layer0
10
0.0
 20
 0.0
 30
0.0
 70
     128
 71
-167
 72
170
 73
-171
  0
VERTEX
  8
Layer0
10
0.0
 20
 0.0
 30
0.0
 70
     128
 71
-167
 72
-171
 73
42
  0
VERTEX
  8
Layer0
10
0.0
 20
 0.0
 30
0.0
 70
     128
 71
-42
 72
171
 73
-172
  0
VERTEX
  8
Layer0
10
0.0
 20
 0.0
 30
0.0
 70
     128
 71
-42
 72
172
 73
-39
  0
SEQEND
  0
POLYLINE
 8
Layer0
 66
     1
10
0.0
 20
 0.0
 30
0.0
70
    64
71
76
72
   1
  0
VERTEX
  8
Layer0
10
47.778370599535144
20
29.4047161962642
30
0.0
 70
     192
  0
VERTEX
  8
Layer0
10
47.70256800000001
20
10.0
30
0.0
 70
     192
  0
VERTEX
  8
Layer0
10
47.7
20
29.999999999999996
30
0.0
 70
     192
  0
VERTEX
  8
Layer0
10
47.78085109705706
20
10.594619156427976
30
0.0
 70
     192
  0
VERTEX
  8
Layer0
10
48.008141571295795
20
28.849999999999998
30
0.0
 70
     192
  0
VERTEX
  8
Layer0
10
48.010365524532716
20
11.148716
30
0.0
 70
     192
  0
VERTEX
  8
Layer0
10
48.37365440327095
20
28.373654403270937
30
0.0
 70
     192
  0
VERTEX
  8
Layer0
10
48.375470253485034
20
11.624529746514973
30
0.0
 70
     192
  0
VERTEX
  8
Layer0
10
48.85
20
28.008141571295788
30
0.0
 70
     192
  0
VERTEX
  8
Layer0
10
48.851284
20
11.989634475467291
30
0.0
 70
     192
  0
VERTEX
  8
Layer0
10
49.404716196264204
20
27.778370599535137
30
0.0
 70
     192
  0
VERTEX
  8
Layer0
10
49.40538084357203
20
12.219148902942948
30
0.0
 70
     192
  0
VERTEX
  8
Layer0
10
50.00000000000001
20
27.699999999999996
30
0.0
 70
     192
  0
VERTEX
  8
Layer0
10
50.00000000000001
20
12.297432
30
0.0
 70
     192
  0
VERTEX
  8
Layer0
10
50.5952838037358
20
27.778370599535137
30
0.0
 70
     192
  0
VERTEX
  8
Layer0
10
50.594619156427974
20
12.219148902942946
30
0.0
 70
     192
  0
VERTEX
  8
Layer0
10
51.14871600000001
20
11.98963447546729
30
0.0
 70
     192
  0
VERTEX
  8
Layer0
10
51.150000000000006
20
28.008141571295788
30
0.0
 70
     192
  0
VERTEX
  8
Layer0
10
51.62452974651497
20
11.624529746514972
30
0.0
 70
     192
  0
VERTEX
  8
Layer0
10
51.62634559672906
20
28.373654403270937
30
0.0
 70
     192
  0
VERTEX
  8
Layer0
10
51.98963447546729
20
11.148715999999999
30
0.0
 70
     192
  0
VERTEX
  8
Layer0
10
51.99185842870421
20
28.849999999999998
30
0.0
 70
     192
  0
VERTEX
  8
Layer0
10
52.21914890294295
20
10.594619156427974
30
0.0
 70
     192
  0
VERTEX
  8
Layer0
10
52.22162940046486
20
29.404716196264197
30
0.0
 70
     192
  0
VERTEX
  8
Layer0
10
52.297432
20
10.0
30
0.0
 70
     192
  0
VERTEX
  8
Layer0
10
52.300000000000004
20
29.999999999999996
30
0.0
 70
     192
  0
VERTEX
  8
Layer0
10
0.0
20
40.0
30
0.0
 70
     192
  0
VERTEX
  8
Layer0
10
4.821767917729576
20
24.008345190082704
30
0.0
 70
     192
  0
VERTEX
  8
Layer0
10
0.0
20
0.0
30
0.0
 70
     192
  0
VERTEX
  8
Layer0
10
6.368931411339735
20
27.743528279564888
30
0.0
 70
     192
  0
VERTEX
  8
Layer0
10
8.830113107812274
20
30.951002713580266
30
0.0
 70
     192
  0
VERTEX
  8
Layer0
10
12.037587541827651
20
33.4121844100528
30
0.0
 70
     192
  0
VERTEX
  8
Layer0
10
15.772770631309857
20
34.95934790366297
30
0.0
 70
     192
  0
VERTEX
  8
Layer0
10
19.781115821392536
20
35.487056559129776
30
0.0
 70
     192
  0
VERTEX
  8
Layer0
10
60.0
20
40.0
30
0.0
 70
     192
  0
VERTEX
  8
Layer0
10
4.294059262262761
20
19.999999999999996
30
0.0
 70
     192
  0
VERTEX
  8
Layer0
10
23.789461011475236
20
34.95934790366296
30
0.0
 70
     192
  0
VERTEX
  8
Layer0
10
27.524644100957417
20
33.4121844100528
30
0.0
 70
     192
  0
VERTEX
  8
Layer0
10
30.732118534972784
20
30.95100271358027
30
0.0
 70
     192
  0
VERTEX
  8
Layer0
10
33.19330023144533
20
27.743528279564895
30
0.0
 70
     192
  0
VERTEX
  8
Layer0
10
34.7404637250555
20
24.008345190082686
30
0.0
 70
     192
  0
VERTEX
  8
Layer0
10
48.85000000000001
20
31.991858428704205
30
0.0
 70
     192
  0
VERTEX
  8
Layer0
10
48.37365440327095
20
31.626345596729056
30
0.0
 70
     192
  0
VERTEX
  8
Layer0
10
35.26817238052231
20
19.99999999999999
30
0.0
 70
     192
  0
VERTEX
  8
Layer0
10
48.008141571295795
20
31.15
30
0.0
 70
     192
  0
VERTEX
  8
Layer0
10
47.778370599535144
20
30.595283803735796
30
0.0
 70
     192
  0
VERTEX
  8
Layer0
10
49.40471619626421
20
32.221629400464856
30
0.0
 70
     192
  0
VERTEX
  8
Layer0
10
50.00000000000001
20
32.3
30
0.0
 70
     192
  0
VERTEX
  8
Layer0
10
50.5952838037358
20
32.221629400464856
30
0.0
 70
     192
  0
VERTEX
  8
Layer0
10
51.150000000000006
20
31.991858428704205
30
0.0
 70
     192
  0
VERTEX
  8
Layer0
10
51.62634559672907
20
31.626345596729056
30
0.0
 70
     192
  0
VERTEX
  8
Layer0
10
51.99185842870421
20
31.149999999999995
30
0.0
 70
     192
  0
VERTEX
  8
Layer0
10
52.22162940046486
20
30.595283803735796
30
0.0
 70
     192
  0
VERTEX
  8
Layer0
10
19.781115821392547
20
4.512943440870231
30
0.0
 70
     192
  0
VERTEX
  8
Layer0
10
60.0
20
0.0
30
0.0
 70
     192
  0
VERTEX
  8
Layer0
10
15.772770631309829
20
5.040652096337045
30
0.0
 70
     192
  0
VERTEX
  8
Layer0
10
12.037587541827666
20
6.587815589947192
30
0.0
 70
     192
  0
VERTEX
  8
Layer0
10
8.830113107812272
20
9.048997286419738
30
0.0
 70
     192
  0
VERTEX
  8
Layer0
10
6.368931411339733
20
12.256471720435119
30
0.0
 70
     192
  0
VERTEX
  8
Layer0
10
4.821767917729567
20
15.991654809917314
30
0.0
 70
     192
  0
VERTEX
  8
Layer0
10
23.789461011475222
20
5.0406520963370385
30
0.0
 70
     192
  0
VERTEX
  8
Layer0
10
27.524644100957406
20
6.587815589947194
30
0.0
 70
     192
  0
VERTEX
  8
Layer0
10
30.7321185349728
20
9.048997286419745
30
0.0
 70
     192
  0
VERTEX
  8
Layer0
10
33.193300231445335
20
12.256471720435115
30
0.0
 70
     192
  0
VERTEX
  8
Layer0
10
34.740463725055484
20
15.991654809917298
30
0.0
 70
     192
  0
VERTEX
  8
Layer0
10
48.851284
20
8.01036552453271
30
0.0
 70
     192
  0
VERTEX
  8
Layer0
10
48.375470253485034
20
8.375470253485028
30
0.0
 70
     192
  0
VERTEX
  8
Layer0
10
48.010365524532716
20
8.851284000000001
30
0.0
 70
     192
  0
VERTEX
  8
Layer0
10
47.78085109705706
20
9.405380843572026
30
0.0
 70
     192
  0
VERTEX
  8
Layer0
10
49.40538084357203
20
7.780851097057054
30
0.0
 70
     192
  0
VERTEX
  8
Layer0
10
50.00000000000001
20
7.702568
30
0.0
 70
     192
  0
VERTEX
  8
Layer0
10
50.594619156427974
20
7.780851097057054
30
0.0
 70
     192
  0
VERTEX
  8
Layer0
10
51.14871600000001
20
8.010365524532709
30
0.0
 70
     192
  0
VERTEX
  8
Layer0
10
51.62452974651497
20
8.375470253485027
30
0.0
 70
     192
  0
VERTEX
  8
Layer0
10
51.98963447546729
20
8.851284
30
0.0
 70
     192
  0
VERTEX
  8
Layer0
10
52.21914890294295
20
9.405380843572026
30
0.0
 70
     192
  0
VERTEX
  8
Layer0
10
0.0
 20
 0.0
 30
0.0
 70
     128
 71
-1
 72
-2
 73
3
  0
VERTEX
  8
Layer0
10
0.0
 20
 0.0
 30
0.0
 70
     128
 71
-2
 72
-1
 73
4
  0
VERTEX
  8
Layer0
10
0.0
 20
 0.0
 30
0.0
 70
     128
 71
-4
 72
1
 73
-5
  0
VERTEX
  8
Layer0
10
0.0
 20
 0.0
 30
0.0
 70
     128
 71
-4
 72
-5
 73
6
  0
VERTEX
  8
Layer0
10
0.0
 20
 0.0
 30
0.0
 70
     128
 71
-6
 72
5
 73
-7
  0
VERTEX
  8
Layer0
10
0.0
 20
 0.0
 30
0.0
 70
     128
 71
-6
 72
-7
 73
8
  0
VERTEX
  8
Layer0
10
0.0
 20
 0.0
 30
0.0
 70
     128
 71
-8
 72
7
 73
-9
  0
VERTEX
  8
Layer0
10
0.0
 20
 0.0
 30
0.0
 70
     128
 71
-8
 72
-9
 73
10
  0
VERTEX
  8
Layer0
10
0.0
 20
 0.0
 30
0.0
 70
     128
 71
-10
 72
9
 73
-11
  0
VERTEX
  8
Layer0
10
0.0
 20
 0.0
 30
0.0
 70
     128
 71
-10
 72
-11
 73
12
  0
VERTEX
  8
Layer0
10
0.0
 20
 0.0
 30
0.0
 70
     128
 71
-12
 72
11
 73
-13
  0
VERTEX
  8
Layer0
10
0.0
 20
 0.0
 30
0.0
 70
     128
 71
-12
 72
-13
 73
14
  0
VERTEX
  8
Layer0
10
0.0
 20
 0.0
 30
0.0
 70
     128
 71
-14
 72
13
 73
-15
  0
VERTEX
  8
Layer0
10
0.0
 20
 0.0
 30
0.0
 70
     128
 71
-14
 72
-15
 73
16
  0
VERTEX
  8
Layer0
10
0.0
 20
 0.0
 30
0.0
 70
     128
 71
-16
 72
-15
 73
17
  0
VERTEX
  8
Layer0
10
0.0
 20
 0.0
 30
0.0
 70
     128
 71
-17
 72
15
 73
-18
  0
VERTEX
  8
Layer0
10
0.0
 20
 0.0
 30
0.0
 70
     128
 71
-17
 72
-18
 73
19
  0
VERTEX
  8
Layer0
10
0.0
 20
 0.0
 30
0.0
 70
     128
 71
-19
 72
18
 73
-20
  0
VERTEX
  8
Layer0
10
0.0
 20
 0.0
 30
0.0
 70
     128
 71
-19
 72
-20
 73
21
  0
VERTEX
  8
Layer0
10
0.0
 20
 0.0
 30
0.0
 70
     128
 71
-21
 72
20
 73
-22
  0
VERTEX
  8
Layer0
10
0.0
 20
 0.0
 30
0.0
 70
     128
 71
-21
 72
-22
 73
23
  0
VERTEX
  8
Layer0
10
0.0
 20
 0.0
 30
0.0
 70
     128
 71
-23
 72
22
 73
-24
  0
VERTEX
  8
Layer0
10
0.0
 20
 0.0
 30
0.0
 70
     128
 71
-23
 72
-24
 73
25
  0
VERTEX
  8
Layer0
10
0.0
 20
 0.0
 30
0.0
 70
     128
 71
-25
 72
24
 73
-26
  0
VERTEX
  8
Layer0
10
0.0
 20
 0.0
 30
0.0
 70
     128
 71
-27
 72
-28
 73
29
  0
VERTEX
  8
Layer0
10
0.0
 20
 0.0
 30
0.0
 70
     128
 71
-28
 72
-27
 73
30
  0
VERTEX
  8
Layer0
10
0.0
 20
 0.0
 30
0.0
 70
     128
 71
-30
 72
-27
 73
31
  0
VERTEX
  8
Layer0
10
0.0
 20
 0.0
 30
0.0
 70
     128
 71
-31
 72
-27
 73
32
  0
VERTEX
  8
Layer0
10
0.0
 20
 0.0
 30
0.0
 70
     128
 71
-32
 72
-27
 73
33
  0
VERTEX
  8
Layer0
10
0.0
 20
 0.0
 30
0.0
 70
     128
 71
-33
 72
-27
 73
34
  0
VERTEX
  8
Layer0
10
0.0
 20
 0.0
 30
0.0
 70
     128
 71
-34
 72
27
 73
-35
  0
VERTEX
  8
Layer0
10
0.0
 20
 0.0
 30
0.0
 70
     128
 71
-29
 72
28
 73
-36
  0
VERTEX
  8
Layer0
10
0.0
 20
 0.0
 30
0.0
 70
     128
 71
-34
 72
-35
 73
37
  0
VERTEX
  8
Layer0
10
0.0
 20
 0.0
 30
0.0
 70
     128
 71
-37
 72
-35
 73
38
  0
VERTEX
  8
Layer0
10
0.0
 20
 0.0
 30
0.0
 70
     128
 71
-38
 72
-35
 73
39
  0
VERTEX
  8
Layer0
10
0.0
 20
 0.0
 30
0.0
 70
     128
 71
-39
 72
-35
 73
40
  0
VERTEX
  8
Layer0
10
0.0
 20
 0.0
 30
0.0
 70
     128
 71
-40
 72
-35
 73
41
  0
VERTEX
  8
Layer0
10
0.0
 20
 0.0
 30
0.0
 70
     128
 71
-41
 72
-35
 73
-42
  0
VERTEX
  8
Layer0
10
0.0
 20
 0.0
 30
0.0
 70
     128
 71
-41
 72
42
 73
-43
  0
VERTEX
  8
Layer0
10
0.0
 20
 0.0
 30
0.0
 70
     128
 71
-41
 72
-43
 73
44
  0
VERTEX
  8
Layer0
10
0.0
 20
 0.0
 30
0.0
 70
     128
 71
-44
 72
43
 73
-45
  0
VERTEX
  8
Layer0
10
0.0
 20
 0.0
 30
0.0
 70
     128
 71
-44
 72
45
 73
-46
  0
VERTEX
  8
Layer0
10
0.0
 20
 0.0
 30
0.0
 70
     128
 71
-44
 72
46
 73
-3
  0
VERTEX
  8
Layer0
10
0.0
 20
 0.0
 30
0.0
 70
     128
 71
-42
 72
-35
 73
47
  0
VERTEX
  8
Layer0
10
0.0
 20
 0.0
 30
0.0
 70
     128
 71
-47
 72
-35
 73
48
  0
VERTEX
  8
Layer0
10
0.0
 20
 0.0
 30
0.0
 70
     128
 71
-48
 72
-35
 73
49
  0
VERTEX
  8
Layer0
10
0.0
 20
 0.0
 30
0.0
 70
     128
 71
-49
 72
-35
 73
50
  0
VERTEX
  8
Layer0
10
0.0
 20
 0.0
 30
0.0
 70
     128
 71
-50
 72
-35
 73
51
  0
VERTEX
  8
Layer0
10
0.0
 20
 0.0
 30
0.0
 70
     128
 71
-51
 72
-35
 73
52
  0
VERTEX
  8
Layer0
10
0.0
 20
 0.0
 30
0.0
 70
     128
 71
-52
 72
-35
 73
53
  0
VERTEX
  8
Layer0
10
0.0
 20
 0.0
 30
0.0
 70
     128
 71
-53
 72
-35
 73
26
  0
VERTEX
  8
Layer0
10
0.0
 20
 0.0
 30
0.0
 70
     128
 71
-29
 72
-54
 73
55
  0
VERTEX
  8
Layer0
10
0.0
 20
 0.0
 30
0.0
 70
     128
 71
-54
 72
-29
 73
56
  0
VERTEX
  8
Layer0
10
0.0
 20
 0.0
 30
0.0
 70
     128
 71
-56
 72
-29
 73
57
  0
VERTEX
  8
Layer0
10
0.0
 20
 0.0
 30
0.0
 70
     128
 71
-57
 72
-29
 73
58
  0
VERTEX
  8
Layer0
10
0.0
 20
 0.0
 30
0.0
 70
     128
 71
-58
 72
-29
 73
59
  0
VERTEX
  8
Layer0
10
0.0
 20
 0.0
 30
0.0
 70
     128
 71
-59
 72
-29
 73
60
  0
VERTEX
  8
Layer0
10
0.0
 20
 0.0
 30
0.0
 70
     128
 71
-60
 72
-29
 73
36
  0
VERTEX
  8
Layer0
10
0.0
 20
 0.0
 30
0.0
 70
     128
 71
-55
 72
54
 73
-61
  0
VERTEX
  8
Layer0
10
0.0
 20
 0.0
 30
0.0
 70
     128
 71
-55
 72
61
 73
-62
  0
VERTEX
  8
Layer0
10
0.0
 20
 0.0
 30
0.0
 70
     128
 71
-55
 72
62
 73
-63
  0
VERTEX
  8
Layer0
10
0.0
 20
 0.0
 30
0.0
 70
     128
 71
-55
 72
63
 73
-64
  0
VERTEX
  8
Layer0
10
0.0
 20
 0.0
 30
0.0
 70
     128
 71
-55
 72
64
 73
-65
  0
VERTEX
  8
Layer0
10
0.0
 20
 0.0
 30
0.0
 70
     128
 71
-55
 72
-65
 73
-66
  0
VERTEX
  8
Layer0
10
0.0
 20
 0.0
 30
0.0
 70
     128
 71
-66
 72
-65
 73
67
  0
VERTEX
  8
Layer0
10
0.0
 20
 0.0
 30
0.0
 70
     128
 71
-67
 72
65
 73
-44
  0
VERTEX
  8
Layer0
10
0.0
 20
 0.0
 30
0.0
 70
     128
 71
-67
 72
-44
 73
68
  0
VERTEX
  8
Layer0
10
0.0
 20
 0.0
 30
0.0
 70
     128
 71
-68
 72
-44
 73
69
  0
VERTEX
  8
Layer0
10
0.0
 20
 0.0
 30
0.0
 70
     128
 71
-69
 72
-44
 73
2
  0
VERTEX
  8
Layer0
10
0.0
 20
 0.0
 30
0.0
 70
     128
 71
-2
 72
-44
 73
-3
  0
VERTEX
  8
Layer0
10
0.0
 20
 0.0
 30
0.0
 70
     128
 71
-55
 72
66
 73
-70
  0
VERTEX
  8
Layer0
10
0.0
 20
 0.0
 30
0.0
 70
     128
 71
-55
 72
70
 73
-71
  0
VERTEX
  8
Layer0
10
0.0
 20
 0.0
 30
0.0
 70
     128
 71
-55
 72
71
 73
-72
  0
VERTEX
  8
Layer0
10
0.0
 20
 0.0
 30
0.0
 70
     128
 71
-55
 72
72
 73
-73
  0
VERTEX
  8
Layer0
10
0.0
 20
 0.0
 30
0.0
 70
     128
 71
-55
 72
73
 73
-74
  0
VERTEX
  8
Layer0
10
0.0
 20
 0.0
 30
0.0
 70
     128
 71
-55
 72
74
 73
-75
  0
VERTEX
  8
Layer0
10
0.0
 20
 0.0
 30
0.0
 70
     128
 71
-55
 72
75
 73
-76
  0
VERTEX
  8
Layer0
10
0.0
 20
 0.0
 30
0.0
 70
     128
 71
-55
 72
76
 73
-25
  0
VERTEX
  8
Layer0
10
0.0
 20
 0.0
 30
0.0
 70
     128
 71
-55
 72
-25
 73
-26
  0
VERTEX
  8
Layer0
10
0.0
 20
 0.0
 30
0.0
 70
     128
 71
-55
 72
-26
 73
35
  0
SEQEND
 0
ENDSEC
 0
EOF
